<?xml version="1.0" encoding="utf-8"?>
<!-- Generator: Adobe Illustrator 27.9.6, SVG Export Plug-In . SVG Version: 9.03 Build 54986)  -->
<svg version="1.1" id="Layer_1" xmlns="http://www.w3.org/2000/svg" xmlns:xlink="http://www.w3.org/1999/xlink" x="0px" y="0px"
	 viewBox="0 0 1071.1 991.5" style="enable-background:new 0 0 1071.1 991.5;" xml:space="preserve">
<style type="text/css">
	.st0{fill:#A1C8D3;}
</style>
<g>
	<path class="st0" d="M504.9,573.3c-35.1-36.5-70.3-72.9-105.3-109.5c-42.9-45-85.5-90.1-128.3-135.2
		C226.1,281,181,233.4,135.7,185.9C102.2,150.7,39.7,85.3,0,43.7V65h0v49.2c14.6,15.2,79.5,82.2,111.5,115.7
		c38.6,40.5,77.1,81.2,115.6,121.8c34.1,36,68.2,72.2,102.4,108.1c38.8,40.8,77.7,81.5,116.8,122c9.4,9.8,19.8,18.7,30.1,28.3
		c9.9-10.2,20.8-21.5,31.9-33C506.9,575.5,505.9,574.4,504.9,573.3z"/>
	<g>
		<path class="st0" d="M980.2,0c-48.9,50.6-117.6,121.5-130.3,134.6C781.3,205.4,712.6,276.3,644,347.1
			c-40.4,41.7-80.9,83.5-121.4,125.2c-6.7,6.9-13.4,13.8-21,21.7c12,11,23.6,21.5,35.6,32.4C665.3,394.3,895,156.7,1046.8,0H980.2z"
			/>
	</g>
	<g>
		<path class="st0" d="M793.3,794.5c60.2,62.5,124.6,134.1,185.4,197l66.9,0C897.7,838.2,746,676.4,598.6,523.7
			c-11.4,11.8-22.2,23.1-34.3,35.7c5,4.5,9.7,8.3,13.9,12.6C650,646.1,721.7,720.3,793.3,794.5z"/>
	</g>
	<g>
		<path class="st0" d="M1071.1,874.8c-28-29-64.3-66.6-89.6-92.4c-46.9-47.8-93.9-95.6-140.8-143.4
			c-52.5-53.5-105-107.1-157.5-160.6c-7.7-7.8-15.8-15.2-24.1-23.1c-10.5,10.9-21.5,22.2-32.9,34
			c143.6,146.4,300.4,306.8,444.9,454.3L1071.1,874.8L1071.1,874.8z"/>
	</g>
	<g>
		<path class="st0" d="M0,183.2v70c20.5,21,48.6,49,61.5,62.4c33.7,35.1,67.4,70.2,101,105.3c38.5,40.2,76.9,80.5,115.4,120.7
			c36.8,38.4,73.7,76.7,110.6,114.9c6.4,6.7,13.4,12.8,18.8,18c11.4-10.4,23-20.9,34.7-31.6C303.6,498.7,140.3,329.4,0,183.2z"/>
	</g>
	<g>
		<path class="st0" d="M846.1,0.1c-36,37.3-81.9,85.1-85.3,88.6C702.9,148.3,645.1,208,587.2,267.7
			c-44.9,46.2-89.8,92.5-134.7,138.8c-6.4,6.7-12.8,13.4-19.4,20.2c11.3,11.7,22.2,23,33.5,34.7C573.9,350.6,780.5,136.8,913,0.1
			H846.1z"/>
	</g>
	<g>
		<path class="st0" d="M1071.1,52.6v-6.7c-29.6,30.5-73.9,76.3-92.9,96c-39.5,40.9-78.9,81.8-118.4,122.7
			c-44.3,45.9-88.6,91.9-132.9,137.8c-7.4,7.6-14.8,15.3-22.4,23.2c11.1,11.6,22,22.8,33.3,34.5c10.5-10.9,20.7-21.5,30.9-32
			c63.4-65.7,126.8-131.5,190.2-197.3c34-35.1,77.3-80.1,112.2-116.3V52.7h0L1071.1,52.6z"/>
	</g>
	<g>
		<path class="st0" d="M711.9,0c-55.3,57.2-135.4,140.1-154.3,159.5c-52.6,54.2-105.1,108.4-157.6,162.6
			c-10.4,10.8-20.7,21.6-31.7,33c11.9,11,23.4,21.7,35.1,32.6C488.1,300.4,665.6,116.8,778.8,0H711.9z"/>
	</g>
	<g>
		<path class="st0" d="M0,320.8v69C47.8,439.3,111.1,505,153.5,548.6c40.9,42.3,81.9,84.5,122.8,126.7c2.6,2.7,4.8,5.7,7.4,8.8
			c12-12.4,22.9-23.6,34.1-35.2C221,549.1,100.3,424.3,0,320.8z"/>
	</g>
	<g>
		<path class="st0" d="M88.9,991.5c34.3-35.3,78-80,111-113.8c48.6-49.9,97.2-99.7,145.8-149.6c8.2-8.4,16.4-16.9,25.5-26.4
			c-12-10.9-23.5-21.4-35.4-32.2c-99.9,102.5-314.4,322-314.4,322L88.9,991.5z"/>
	</g>
	<g>
		<path class="st0" d="M1071.1,734.9c-29.3-30.3-67-69.6-93.6-96.9C926.7,585.6,875.9,533.2,825,480.9c-7.6-7.9-16-14.9-22.9-21.3
			c-10.6,9.8-22.1,20.4-34.1,31.5c96.8,99.8,206.1,212.9,303.1,313V734.9z"/>
	</g>
	<g>
		<path class="st0" d="M589.1,0l-11.2,0.1c-31.4,32.6-69.5,72.3-70.9,73.7C448.4,134.2,389.9,194.7,331.4,255
			c-10.7,11-21.4,22-32.3,33.2c11.2,11.7,22.3,23.1,33.4,34.6C397,256.2,549.7,98,644.6,0H589.1z"/>
	</g>
	<g>
		<path class="st0" d="M0,943.9c74.4-76.6,165.5-163.1,235.8-235.5c-11.2-11.7-22.1-22.9-34-35.3c-0.9,1.4-1.4,2.5-2.3,3.4
			c-28.2,29.2-56.4,58.4-84.7,87.6C84.4,795.6,35.7,838.3,0,875V943.9z"/>
	</g>
	<g>
		<path class="st0" d="M1071.1,183.5c-73.5,78-157.5,166.8-230.6,244.3c11.6,10.8,23.1,21.6,35.5,33.2c1.1-1.3,2.9-3.7,4.9-5.9
			c23.8-25.3,47.7-50.7,71.6-76c35.5-37.7,81.6-86.3,118.6-125.7V183.5z"/>
	</g>
	<g>
		<path class="st0" d="M87,0H19.8c78.5,81.6,203.5,211.6,251.1,260.7c11.8-11.1,23.1-21.9,34.7-32.8c-1.4-1.6-2-2.4-2.7-3.1
			C265.6,186.1,156.1,72,87,0z"/>
	</g>
	<g>
		<path class="st0" d="M0,460.3v69c35,35.9,79.7,81.8,113.6,116.6c7.2,7.4,15,14.2,22.7,21.4c10.4-10.7,21.3-22.1,32.5-33.6
			C114,577.1,55.5,517.7,0,460.3z"/>
	</g>
	<g>
		<path class="st0" d="M1071.1,601.1c-36.3-37.3-84-86.6-116.8-120.4c-5.2-5.4-10.8-10.3-16.6-15.8C927,476,916,487.4,904.8,499.1
			c49.4,50.8,113.4,116.8,166.3,171.5V601.1z"/>
	</g>
	<g>
		<path class="st0" d="M215.2,0h-67.2C211.2,63.9,310.5,163.1,339,192.7c11.3-11.7,22.2-23.1,33.5-34.7
			c-5.3-5.4-10.5-10.6-15.5-15.9C342,126.4,266.4,51.3,215.2,0z"/>
	</g>
	<g>
		<path class="st0" d="M844.8,991.6l67.3-0.1c-36.4-37.8-66.5-67.9-100.5-103.3c-12,11-23.5,21.6-35.1,32.2c1,1.7,1,0.6,1.4,1
			C801.5,946,819.9,965.9,844.8,991.6z"/>
	</g>
	<g>
		<path class="st0" d="M1071.1,322.8c-32.3,31.6-68.9,67.7-100.7,98.9c12.3,11.1,23.9,21.6,35.6,32.2c18.8-18,44.5-42.6,65.1-62.6
			L1071.1,322.8L1071.1,322.8z"/>
	</g>
	<g>
		<path class="st0" d="M777.6,991.5c-15.3-15.9-19.9-21.2-33.4-35.2c-10.9,11.3-24.1,24-35,35.2H777.6z"/>
	</g>
	<g>
		<path class="st0" d="M1071.1,460.5c-10.6,11-22.5,23.2-32.3,33.4c9.9,11,22,24.3,32.3,35.9V460.5z"/>
	</g>
	<g>
		<path class="st0" d="M289.5,0c36.2,37.8,89.6,94.5,114.3,120.6l31.6-31.9C415.7,68.7,375.8,28.1,349,0H289.5z"/>
		<path class="st0" d="M426.9,0c16.1,16.8,38.3,40.4,54.4,57.5L516,22.6C510.6,17,501.1,7,494.4,0H426.9z"/>
	</g>
	<g>
		<path class="st0" d="M149.4,990.8h68.1l0,0c16.7-16.7,38.7-39.4,52.8-53.6C360.3,846.8,450.2,756.4,540,666
			c9.5-9.5,18.8-19.2,28.5-29.2l-32.9-34.1C411.4,727.9,275,864.2,149.4,990.8z"/>
		<path class="st0" d="M291,991.5l60.2-0.1c51.6-51.1,112.6-112.4,162.8-162.6c32.9-32.9,65.5-66,98.2-99.1c7.6-7.6,15-15.4,23-23.7
			l-33.3-34.6C503,773.5,391.7,887.8,291,991.5z"/>
		<path class="st0" d="M428.4,991.5h67.7c0,0,60.7-59.9,84.3-83.4c37.5-37.4,74.8-75,112.2-112.6c4.8-4.9,9.5-9.8,14.4-14.8
			l-33.1-34.4C596.5,824,506.8,912.9,428.4,991.5z"/>
		<path class="st0" d="M641.8,991.5c42.8-42.3,96-94.5,137.4-135.7l-33.2-34.5c-54.2,53.7-116.8,116.3-171,170.1l35.7,0.1H641.8z"/>
	</g>
	<g>
		<path class="st0" d="M73.4,671.6c-0.9,0.5,0,0-73.4,64v68.9c106.4-98.6,0,0,106.4-98.6C95.3,694.2,84.3,682.9,73.4,671.6z"/>
	</g>
	<g>
		<path class="st0" d="M0,601v68.9l0.1,0.8c7.9-8.3,28-24.8,35.6-32.6C26.5,628.5,11.3,612.6,0,601z"/>
	</g>
</g>
</svg>
